<svg width="35" height="35" viewBox="0 0 35 35" fill="none" xmlns="http://www.w3.org/2000/svg">
<path fill-rule="evenodd" clip-rule="evenodd" d="M13.0032 15.4024C13.0032 15.7021 13.0856 16.3591 13.1476 16.8083L14.401 15.2544L15.3781 14.1213C15.8404 13.6174 16.3742 13.2623 16.6461 13.3579C16.9203 13.4534 17.0691 13.7749 16.9801 14.0746L13.2869 26.3057C12.9026 27.5766 13.5494 28.9372 14.7328 29.3441C15.0055 29.4367 15.2812 29.4717 15.5517 29.4542L15.626 29.4586C18.4508 29.4586 20.386 27.3805 22.0631 24.8626C22.0631 24.563 21.9815 23.9074 21.9202 23.4568L20.6653 25.0099L19.689 26.1431C19.2274 26.6491 18.6521 27.0027 18.3794 26.9072C18.1264 26.8175 17.9791 26.5375 18.0294 26.2583L21.7481 13.9689C22.1324 12.698 21.4856 11.3381 20.3022 10.9312C20.028 10.8349 19.4542 10.8058 19.441 10.8058C16.6155 10.8058 14.681 12.8846 13.0032 15.4024ZM18.8264 6.48181C18.8264 7.99629 19.9712 9.02442 21.3835 9.02442C22.7959 9.02442 23.9407 7.99629 23.9407 6.48181C23.9407 4.96588 22.7959 3.93848 21.3835 3.93848C19.9712 3.93848 18.8264 4.96588 18.8264 6.48181Z" fill="#00B2FF"/>
</svg>
