<svg width="29" height="29" viewBox="0 0 29 29" fill="none" xmlns="http://www.w3.org/2000/svg">
<path d="M11.6241 19.3333L13.4366 21.1458L17.3637 17.5208" stroke="white" stroke-width="1.5" stroke-linecap="round" stroke-linejoin="round"/>
<path d="M10.6454 2.41666L6.27124 6.80291M18.3546 2.41666L22.7287 6.80291" stroke="white" stroke-width="1.5" stroke-miterlimit="10" stroke-linecap="round" stroke-linejoin="round"/>
<path d="M2.41663 9.48542C2.41663 7.25 3.61288 7.06875 5.09913 7.06875H23.9008C25.387 7.06875 26.5833 7.25 26.5833 9.48542C26.5833 12.0833 25.387 11.9021 23.9008 11.9021H5.09913C3.61288 11.9021 2.41663 12.0833 2.41663 9.48542Z" stroke="white" stroke-width="1.5"/>
<path d="M4.22913 12.0833L5.93288 22.5233C6.31954 24.8675 7.24996 26.5833 10.7058 26.5833H17.992C21.75 26.5833 22.3058 24.94 22.7408 22.6683L24.7708 12.0833" stroke="white" stroke-width="1.5" stroke-linecap="round"/>
</svg>
