<svg width="24" height="24" viewBox="0 0 24 24" fill="none" xmlns="http://www.w3.org/2000/svg">
<g clip-path="url(#clip0_1_1318)">
<mask id="mask0_1_1318" style="mask-type:luminance" maskUnits="userSpaceOnUse" x="0" y="0" width="24" height="24">
<path d="M0 0H24V24H0V0Z" fill="white"/>
</mask>
<g mask="url(#mask0_1_1318)">
<path d="M1.79115 8.57945C1.79115 8.11335 2.10947 7.69271 2.67852 7.69271H5.58947C6.08968 7.69271 6.35115 8.07924 6.35115 8.47714C6.35115 8.86366 6.10105 9.26219 5.58947 9.26219H3.49705V10.922H5.25978C5.80547 10.922 6.07831 11.3091 6.07831 11.695C6.07831 12.0936 5.80547 12.4915 5.25978 12.4915H3.49705V14.9704C3.49705 15.5388 3.13326 15.8578 2.64442 15.8578C2.15494 15.8578 1.79115 15.5388 1.79115 14.9704V8.57945ZM8.54526 11.275H9.71621C10.3421 11.275 10.7741 10.8999 10.7741 10.2626C10.7741 9.61524 10.3421 9.26219 9.71621 9.26219H8.54526V11.275ZM6.83936 8.58008C6.83936 8.0344 7.14631 7.69335 7.71536 7.69335H9.71621C11.4676 7.69335 12.5482 8.47777 12.5482 10.2626C12.5482 11.5144 11.604 12.2306 10.4444 12.4125L12.3777 14.4822C12.5368 14.6527 12.605 14.8232 12.605 14.9824C12.605 15.4258 12.2526 15.8584 11.7518 15.8584C11.5472 15.8584 11.2743 15.7788 11.0924 15.5622L8.568 12.5035H8.54526V14.971C8.54526 15.5395 8.18147 15.8584 7.692 15.8584C7.20315 15.8584 6.83936 15.5395 6.83936 14.971V8.58008ZM12.9328 8.6824C12.9328 8.11398 13.2164 7.69335 13.8196 7.69335H16.6396C17.1859 7.69335 17.4474 8.07987 17.4474 8.47777C17.4474 8.86429 17.1739 9.26219 16.6396 9.26219H14.6387V10.9226H16.5032C17.0602 10.9226 17.333 11.3098 17.333 11.7077C17.333 12.0942 17.0495 12.4921 16.5032 12.4921H14.6387V14.2207H16.7419C17.2882 14.2207 17.5503 14.6066 17.5503 15.0051C17.5503 15.3923 17.2762 15.7896 16.7419 15.7896H13.8088C13.308 15.7896 12.9328 15.4485 12.9328 14.9369V8.6824ZM17.969 8.6824C17.969 8.11398 18.2526 7.69335 18.8558 7.69335H21.6758C22.2208 7.69335 22.4823 8.07987 22.4823 8.47777C22.4823 8.86429 22.2101 9.26219 21.6758 9.26219H19.6737V10.9226H21.5387C22.0964 10.9226 22.3693 11.3098 22.3693 11.7077C22.3693 12.0942 22.0857 12.4921 21.5387 12.4921H19.6737V14.2207H21.7781C22.3238 14.2207 22.5853 14.6066 22.5853 15.0051C22.5853 15.3923 22.3124 15.7896 21.7781 15.7896H18.8438C18.3442 15.7896 17.969 15.4485 17.969 14.9369V8.6824Z" fill="white"/>
</g>
</g>
<rect x="0.5" y="0.5" width="23" height="23" rx="4.5" stroke="white"/>
<defs>
<clipPath id="clip0_1_1318">
<rect width="24" height="24" rx="5" fill="white"/>
</clipPath>
</defs>
</svg>
