<svg width="31" height="18" viewBox="0 0 31 18" fill="none" xmlns="http://www.w3.org/2000/svg">
<path d="M26.77 8.8C27.7233 8.852 28.447 9.112 28.941 9.58C29.4437 10.0393 29.695 10.6417 29.695 11.387C29.695 11.907 29.5693 12.3707 29.318 12.778C29.0667 13.1767 28.694 13.493 28.2 13.727C27.706 13.961 27.1037 14.078 26.393 14.078C25.7343 14.078 25.1103 13.974 24.521 13.766C23.9403 13.5493 23.4723 13.2633 23.117 12.908L23.572 12.167C23.8753 12.479 24.2783 12.7347 24.781 12.934C25.2837 13.1247 25.821 13.22 26.393 13.22C27.1383 13.22 27.7147 13.0597 28.122 12.739C28.5293 12.4097 28.733 11.959 28.733 11.387C28.733 10.8237 28.5293 10.3817 28.122 10.061C27.7147 9.74033 27.0993 9.58 26.276 9.58H25.626V8.891L28.148 5.732H23.494V4.9H29.344V5.563L26.77 8.8Z" fill="white"/>
<g clip-path="url(#clip0_1_232)">
<path d="M6.375 14.25H6C3 14.25 1.5 13.5 1.5 9.75V6C1.5 3 3 1.5 6 1.5H12C15 1.5 16.5 3 16.5 6V9.75C16.5 12.75 15 14.25 12 14.25H11.625C11.3925 14.25 11.1675 14.3625 11.025 14.55L9.9 16.05C9.405 16.71 8.595 16.71 8.1 16.05L6.975 14.55C6.855 14.385 6.5775 14.25 6.375 14.25Z" stroke="white" stroke-width="1.5" stroke-miterlimit="10" stroke-linecap="round" stroke-linejoin="round"/>
<path d="M5.25 6H12.75M5.25 9.75H9.75" stroke="white" stroke-width="1.5" stroke-linecap="round" stroke-linejoin="round"/>
</g>
<defs>
<clipPath id="clip0_1_232">
<rect width="18" height="18" fill="white"/>
</clipPath>
</defs>
</svg>
