<svg width="64" height="18" viewBox="0 0 64 18" fill="none" xmlns="http://www.w3.org/2000/svg">
<path d="M29.89 13.168V14H23.507V13.337L27.29 9.632C27.7667 9.164 28.0873 8.761 28.252 8.423C28.4253 8.07633 28.512 7.72967 28.512 7.383C28.512 6.84567 28.3257 6.42967 27.953 6.135C27.589 5.83167 27.0647 5.68 26.38 5.68C25.314 5.68 24.4863 6.018 23.897 6.694L23.234 6.122C23.5893 5.706 24.04 5.38533 24.586 5.16C25.1407 4.93467 25.7647 4.822 26.458 4.822C27.3853 4.822 28.1177 5.043 28.655 5.485C29.201 5.91833 29.474 6.51633 29.474 7.279C29.474 7.747 29.37 8.19767 29.162 8.631C28.954 9.06433 28.5597 9.56267 27.979 10.126L24.885 13.168H29.89ZM38.495 11.608H36.675V14H35.739V11.608H30.604V10.932L35.427 4.9H36.467L31.813 10.776H35.765V8.67H36.675V10.776H38.495V11.608ZM44.6947 9.229C45.2667 9.41967 45.7043 9.70567 46.0077 10.087C46.3197 10.4683 46.4757 10.9277 46.4757 11.465C46.4757 11.9937 46.3327 12.4573 46.0467 12.856C45.7607 13.246 45.349 13.5493 44.8117 13.766C44.283 13.974 43.659 14.078 42.9397 14.078C41.8477 14.078 40.9897 13.844 40.3657 13.376C39.7417 12.908 39.4297 12.271 39.4297 11.465C39.4297 10.919 39.577 10.4597 39.8717 10.087C40.175 9.70567 40.6127 9.41967 41.1847 9.229C40.7167 9.047 40.3613 8.787 40.1187 8.449C39.876 8.10233 39.7547 7.695 39.7547 7.227C39.7547 6.49033 40.0407 5.90533 40.6127 5.472C41.1933 5.03867 41.969 4.822 42.9397 4.822C43.581 4.822 44.14 4.92167 44.6167 5.121C45.102 5.31167 45.479 5.589 45.7477 5.953C46.0163 6.317 46.1507 6.74167 46.1507 7.227C46.1507 7.695 46.025 8.10233 45.7737 8.449C45.5223 8.787 45.1627 9.047 44.6947 9.229ZM40.6907 7.253C40.6907 7.75567 40.89 8.15433 41.2887 8.449C41.6873 8.74367 42.2377 8.891 42.9397 8.891C43.6417 8.891 44.192 8.74367 44.5907 8.449C44.998 8.15433 45.2017 7.76 45.2017 7.266C45.2017 6.75467 44.9937 6.35167 44.5777 6.057C44.1703 5.76233 43.6243 5.615 42.9397 5.615C42.2463 5.615 41.696 5.76233 41.2887 6.057C40.89 6.35167 40.6907 6.75033 40.6907 7.253ZM42.9397 13.285C43.7457 13.285 44.374 13.1203 44.8247 12.791C45.284 12.4617 45.5137 12.0153 45.5137 11.452C45.5137 10.8887 45.284 10.4467 44.8247 10.126C44.374 9.79667 43.7457 9.632 42.9397 9.632C42.1423 9.632 41.514 9.79667 41.0547 10.126C40.604 10.4467 40.3787 10.8887 40.3787 11.452C40.3787 12.024 40.604 12.4747 41.0547 12.804C41.5053 13.1247 42.1337 13.285 42.9397 13.285ZM48.6007 14.065C48.41 14.065 48.2453 13.9957 48.1067 13.857C47.9767 13.7183 47.9117 13.5493 47.9117 13.35C47.9117 13.1507 47.9767 12.986 48.1067 12.856C48.2453 12.7173 48.41 12.648 48.6007 12.648C48.7913 12.648 48.956 12.7173 49.0947 12.856C49.2333 12.986 49.3027 13.1507 49.3027 13.35C49.3027 13.5493 49.2333 13.7183 49.0947 13.857C48.956 13.9957 48.7913 14.065 48.6007 14.065ZM53.0232 4.9V14H52.0872V5.732H49.9422V4.9H53.0232ZM58.8255 9.723L56.9665 11.608V14H56.0045V4.9H56.9665V10.399L62.3095 4.9H63.4145L59.4755 9.021L63.6875 14H62.5435L58.8255 9.723Z" fill="white"/>
<path d="M9.465 15.6077C9.21 15.6977 8.79 15.6977 8.535 15.6077C6.36 14.8652 1.5 11.7677 1.5 6.5177C1.5 4.2002 3.3675 2.3252 5.67 2.3252C7.035 2.3252 8.2425 2.9852 9 4.0052C9.38533 3.4846 9.88723 3.06149 10.4655 2.76975C11.0438 2.47802 11.6823 2.32576 12.33 2.3252C14.6325 2.3252 16.5 4.2002 16.5 6.5177C16.5 11.7677 11.64 14.8652 9.465 15.6077Z" stroke="white" stroke-width="1.5" stroke-linecap="round" stroke-linejoin="round"/>
</svg>
