<svg width="24" height="24" viewBox="0 0 24 24" fill="none" xmlns="http://www.w3.org/2000/svg">
<g clip-path="url(#clip0_1_1309)">
<mask id="mask0_1_1309" style="mask-type:luminance" maskUnits="userSpaceOnUse" x="0" y="0" width="24" height="24">
<path d="M0 0H24V24H0V0Z" fill="white"/>
</mask>
<g mask="url(#mask0_1_1309)">
<path d="M16.8695 7.49495L12.4914 1.04337C12.1118 0.484422 11.5074 0.49579 11.148 1.06674L7.11221 7.47158C6.75284 8.04253 6.99853 8.50989 7.65916 8.50989H8.84147V10.7368C8.84147 11.0719 8.97456 11.3931 9.21144 11.63C9.44833 11.8669 9.76962 12 10.1046 12H13.8941C14.2291 12 14.5504 11.8669 14.7873 11.63C15.0242 11.3931 15.1573 11.0719 15.1573 10.7368V8.50989H16.3566C17.0173 8.50989 17.2497 8.05389 16.8695 7.49495Z" fill="white"/>
<path d="M2.93747 15.5212H1.53978C0.923993 15.5212 0.667572 15.0715 0.667572 14.6364C0.667572 14.1879 0.988414 13.7522 1.53978 13.7522H6.25705C6.80905 13.7522 7.12989 14.1879 7.12989 14.6364C7.12989 15.0715 6.87347 15.5212 6.25705 15.5212H4.85999V21.9564C4.85999 22.5981 4.4501 22.9568 3.89873 22.9568C3.34736 22.9568 2.93747 22.5981 2.93747 21.9564V15.5212Z" fill="white"/>
<path d="M14.0173 18.3159C14.0173 16.7647 13.2095 15.3664 11.6072 15.3664C10.0042 15.3664 9.19642 16.7647 9.19642 18.3159C9.19642 19.8797 9.97894 21.2641 11.6072 21.2641C13.2354 21.2641 14.0173 19.8797 14.0173 18.3159ZM7.19684 18.3159C7.19684 15.6494 8.99115 13.5974 11.6072 13.5974C14.1834 13.5974 16.0168 15.7138 16.0168 18.3159C16.0168 20.9692 14.2352 23.0344 11.6072 23.0344C9.00442 23.0344 7.19684 20.9692 7.19684 18.3159Z" fill="white"/>
<path d="M18.7408 18.1617H20.0488C20.856 18.1617 21.3682 17.5718 21.3682 16.8032C21.3682 16.0333 20.856 15.4434 20.0488 15.4434H18.7408V18.1617ZM16.817 14.7518C16.817 14.1486 17.1764 13.7526 17.8181 13.7526H20.0861C21.9714 13.7526 23.3684 14.9823 23.3684 16.8158C23.3684 18.6872 21.9202 19.8543 20.1638 19.8543H18.7408V21.9569C18.7408 22.5979 18.3309 22.9573 17.7802 22.9573C17.2276 22.9573 16.817 22.5979 16.817 21.9569V14.7518Z" fill="white"/>
</g>
</g>
<defs>
<clipPath id="clip0_1_1309">
<rect width="24" height="24" fill="white"/>
</clipPath>
</defs>
</svg>
